<svg width="461" height="132" viewBox="0 0 461 132" fill="none" xmlns="http://www.w3.org/2000/svg">
<path d="M385.589 55.1192C377.592 50.3022 359.681 45.0905 353.716 61.799C352.945 63.9591 352.741 66.277 352.702 68.5702C352.574 76.102 353.136 85.0969 368.17 89.1252C381.569 90.4588 385.589 87.7916 385.589 85.1245C385.589 82.9908 385.589 73.5669 385.589 69.1217H370.849" stroke="url(#paint0_linear_103_27)" stroke-width="2.5"/>
<path d="M396.309 51.7853H423.108" stroke="url(#paint1_linear_103_27)" stroke-width="2.5"/>
<path d="M423.108 69.7885H396.979V89.1252H423.108" stroke="url(#paint2_linear_103_27)" stroke-width="2.5"/>
<path d="M272.362 49.7849L288.441 89.792L305.191 49.7849" stroke="url(#paint3_linear_103_27)" stroke-width="2.5"/>
<path d="M310.551 89.792L327.971 49.7849L346.73 89.792" stroke="url(#paint4_linear_103_27)" stroke-width="2.5"/>
<path d="M248.242 49.7849V87.7916C248.242 87.7916 265.393 87.7916 276.382 87.7916" stroke="url(#paint5_linear_103_27)" stroke-width="2.5"/>
<path d="M193.974 55.1191C193.974 51.7646 178.429 46.6285 170.248 53.2333C166.908 55.9303 165.857 61.2278 168.785 64.3677C170.917 66.6541 174.867 68.4549 181.914 68.4549C197.994 68.4549 196.654 79.7902 193.974 84.4577C191.294 89.1252 186.604 89.792 181.914 89.792C177.224 89.792 171.864 89.792 166.504 81.7906" stroke="url(#paint6_linear_103_27)" stroke-width="2.5"/>
<path d="M202.014 89.1252L218.763 49.7849L236.183 89.1252" stroke="url(#paint7_linear_103_27)" stroke-width="2.5"/>
<path d="M192.338 110.665V123.462H190.132V110.665H192.338ZM200.028 110.665L194.843 116.826L191.89 119.955L191.503 117.766L193.612 115.165L197.339 110.665H200.028ZM197.655 123.462L193.445 117.397L194.966 115.894L200.274 123.462H197.655ZM217.621 121.713V123.462H210.827V121.713H217.621ZM211.451 110.665V123.462H209.245V110.665H211.451ZM216.733 116.008V117.731H210.827V116.008H216.733ZM217.577 110.665V112.423H210.827V110.665H217.577ZM237.314 110.665V123.462H235.108L229.369 114.295V123.462H227.163V110.665H229.369L235.126 119.849V110.665H237.314ZM248.658 110.665L251.628 116.773L254.599 110.665H257.042L252.736 118.751V123.462H250.512V118.751L246.205 110.665H248.658ZM270.161 112.37L266.338 123.462H264.026L268.843 110.665H270.319L270.161 112.37ZM273.36 123.462L269.528 112.37L269.361 110.665H270.847L275.681 123.462H273.36ZM273.176 118.716V120.465H266.215V118.716H273.176Z" fill="black"/>
<path d="M301.726 121.713V123.462H295.301V121.713H301.726ZM295.917 110.665V123.462H293.711V110.665H295.917ZM312.717 110.665V123.462H310.511V110.665H312.717ZM323.285 110.665H325.254L328.954 120.535L332.646 110.665H334.615L329.728 123.462H328.163L323.285 110.665ZM322.389 110.665H324.261L324.586 119.208V123.462H322.389V110.665ZM333.639 110.665H335.52V123.462H333.314V119.208L333.639 110.665ZM347.424 110.665V123.462H345.218V110.665H347.424ZM362.098 110.665V123.462H359.909V110.665H362.098ZM366.114 110.665V112.423H355.928V110.665H366.114ZM383.108 121.713V123.462H376.314V121.713H383.108ZM376.938 110.665V123.462H374.732V110.665H376.938ZM382.22 116.008V117.731H376.314V116.008H382.22ZM383.064 110.665V112.423H376.314V110.665H383.064ZM395.557 123.462H392.824L392.841 121.713H395.557C396.348 121.713 397.01 121.54 397.544 121.194C398.083 120.848 398.487 120.353 398.756 119.709C399.032 119.064 399.17 118.297 399.17 117.406V116.712C399.17 116.02 399.09 115.408 398.932 114.875C398.78 114.341 398.551 113.893 398.247 113.53C397.948 113.167 397.579 112.891 397.139 112.704C396.706 112.516 396.205 112.423 395.636 112.423H392.771V110.665H395.636C396.486 110.665 397.262 110.808 397.965 111.095C398.669 111.377 399.275 111.784 399.785 112.317C400.3 112.85 400.696 113.489 400.971 114.233C401.247 114.977 401.384 115.809 401.384 116.729V117.406C401.384 118.326 401.247 119.158 400.971 119.902C400.696 120.646 400.3 121.285 399.785 121.818C399.269 122.345 398.654 122.753 397.939 123.04C397.23 123.321 396.436 123.462 395.557 123.462ZM394.046 110.665V123.462H391.839V110.665H394.046Z" fill="black"/>
<line x1="127.718" y1="120.461" x2="176.398" y2="120.461" stroke="black" stroke-width="1.33945" stroke-linecap="round"/>
<line x1="410.981" y1="119.794" x2="461" y2="119.794" stroke="black" stroke-width="1.33945"/>
<path d="M51.0193 39.4039H119.546H123.047L113.043 63.2985C92.2019 62.9666 50.119 62.502 48.5184 63.2985C37.7142 67.2809 42.6828 73.5865 46.5176 76.2414H106.041L93.5358 93.6646H39.0147C9.50329 90.18 15.0054 70.2678 15.0054 66.2853C19.8073 47.5679 41.0155 40.5654 51.0193 39.4039Z" fill="url(#paint8_linear_103_27)"/>
<path d="M79.0302 108.101H22.5083L1 131H48.5184L79.0302 108.101Z" fill="url(#paint9_linear_103_27)"/>
<path d="M51.0193 39.4039H119.546H123.047L113.043 63.2985C92.2019 62.9666 50.119 62.502 48.5184 63.2985C37.7142 67.2809 42.6828 73.5865 46.5176 76.2414H106.041L93.5358 93.6646H39.0147C9.50329 90.18 15.0054 70.2678 15.0054 66.2853C19.8073 47.5679 41.0155 40.5654 51.0193 39.4039Z" stroke="url(#paint10_linear_103_27)" stroke-width="0.5"/>
<path d="M79.0302 108.101H22.5083L1 131H48.5184L79.0302 108.101Z" stroke="url(#paint11_linear_103_27)" stroke-width="0.5"/>
<path d="M148.877 31.2086L148.057 33.928C145.056 14.5136 130.217 9.70144 122.047 9.53551C93.6358 8.73902 70.8604 20.4872 63.024 26.4609L50.5192 32.4345C83.0492 8.15355 99.1083 3.90739 111.824 1.40584C112.97 1.18039 114.142 1.04598 115.31 1.02186C135.738 0.599767 143.836 6.37444 147.51 11.1931C149.08 13.2525 149.802 15.819 149.939 18.405C150.114 21.7068 149.886 24.4089 149.714 26.4349L149.701 26.5963C149.569 28.155 149.328 29.7109 148.877 31.2086Z" fill="url(#paint12_linear_103_27)" stroke="url(#paint13_linear_103_27)" stroke-width="0.5"/>
<defs>
<linearGradient id="paint0_linear_103_27" x1="369.139" y1="50.3775" x2="369.139" y2="89.4799" gradientUnits="userSpaceOnUse">
<stop stop-color="#C20E1D"/>
<stop offset="1" stop-color="#471317" stop-opacity="0.8"/>
</linearGradient>
<linearGradient id="paint1_linear_103_27" x1="409.709" y1="51.7853" x2="409.709" y2="52.7853" gradientUnits="userSpaceOnUse">
<stop stop-color="#C20E1D"/>
<stop offset="1" stop-color="#471317" stop-opacity="0.8"/>
</linearGradient>
<linearGradient id="paint2_linear_103_27" x1="410.044" y1="69.7885" x2="410.044" y2="89.1252" gradientUnits="userSpaceOnUse">
<stop stop-color="#C20E1D"/>
<stop offset="1" stop-color="#471317" stop-opacity="0.8"/>
</linearGradient>
<linearGradient id="paint3_linear_103_27" x1="288.776" y1="49.7849" x2="288.776" y2="89.792" gradientUnits="userSpaceOnUse">
<stop stop-color="#C20E1D"/>
<stop offset="1" stop-color="#471317" stop-opacity="0.8"/>
</linearGradient>
<linearGradient id="paint4_linear_103_27" x1="328.64" y1="49.7849" x2="328.64" y2="89.792" gradientUnits="userSpaceOnUse">
<stop stop-color="#C20E1D"/>
<stop offset="1" stop-color="#471317" stop-opacity="0.8"/>
</linearGradient>
<linearGradient id="paint5_linear_103_27" x1="262.312" y1="49.7849" x2="262.312" y2="87.7916" gradientUnits="userSpaceOnUse">
<stop stop-color="#C20E1D"/>
<stop offset="1" stop-color="#471317" stop-opacity="0.8"/>
</linearGradient>
<linearGradient id="paint6_linear_103_27" x1="181.058" y1="50.0331" x2="181.058" y2="89.792" gradientUnits="userSpaceOnUse">
<stop stop-color="#C20E1D"/>
<stop offset="1" stop-color="#471317" stop-opacity="0.8"/>
</linearGradient>
<linearGradient id="paint7_linear_103_27" x1="219.098" y1="49.7849" x2="219.098" y2="89.1252" gradientUnits="userSpaceOnUse">
<stop stop-color="#C20E1D"/>
<stop offset="1" stop-color="#471317" stop-opacity="0.8"/>
</linearGradient>
<linearGradient id="paint8_linear_103_27" x1="11.5041" y1="85.2019" x2="55.0817" y2="271.636" gradientUnits="userSpaceOnUse">
<stop stop-color="#C20E1D"/>
<stop offset="1" stop-color="#471317" stop-opacity="0.8"/>
</linearGradient>
<linearGradient id="paint9_linear_103_27" x1="11.5041" y1="85.2019" x2="55.0817" y2="271.636" gradientUnits="userSpaceOnUse">
<stop stop-color="#C20E1D"/>
<stop offset="1" stop-color="#471317" stop-opacity="0.8"/>
</linearGradient>
<linearGradient id="paint10_linear_103_27" x1="62.0236" y1="39.4039" x2="62.0236" y2="131" gradientUnits="userSpaceOnUse">
<stop stop-color="#C20E1D"/>
<stop offset="1" stop-color="#471317" stop-opacity="0.8"/>
</linearGradient>
<linearGradient id="paint11_linear_103_27" x1="62.0236" y1="39.4039" x2="62.0236" y2="131" gradientUnits="userSpaceOnUse">
<stop stop-color="#C20E1D"/>
<stop offset="1" stop-color="#471317" stop-opacity="0.8"/>
</linearGradient>
<linearGradient id="paint12_linear_103_27" x1="111.043" y1="5.0553" x2="100.624" y2="29.9812" gradientUnits="userSpaceOnUse">
<stop stop-color="#C20E1D"/>
<stop offset="1" stop-color="#471317" stop-opacity="0.8"/>
</linearGradient>
<linearGradient id="paint13_linear_103_27" x1="100.261" y1="1" x2="100.261" y2="33.928" gradientUnits="userSpaceOnUse">
<stop stop-color="#C20E1D"/>
<stop offset="1" stop-color="#471317" stop-opacity="0.8"/>
</linearGradient>
</defs>
</svg>
